<mxfile host="app.diagrams.net" agent="Mozilla/5.0 (Windows NT 10.0; Win64; x64) AppleWebKit/537.36 (KHTML, like Gecko) Chrome/130.0.0.0 Safari/537.36 Edg/130.0.0.0" version="24.8.6">
  <diagram id="C5RBs43oDa-KdzZeNtuy" name="Page-1">
    <mxGraphModel dx="893" dy="860" grid="1" gridSize="10" guides="1" tooltips="1" connect="1" arrows="1" fold="1" page="1" pageScale="1" pageWidth="827" pageHeight="1169" math="0" shadow="0">
      <root>
        <mxCell id="WIyWlLk6GJQsqaUBKTNV-0" />
        <mxCell id="WIyWlLk6GJQsqaUBKTNV-1" parent="WIyWlLk6GJQsqaUBKTNV-0" />
        <mxCell id="LHV5OJZliF3AEs5SAvBv-2" value="" style="edgeStyle=orthogonalEdgeStyle;rounded=0;orthogonalLoop=1;jettySize=auto;html=1;" edge="1" parent="WIyWlLk6GJQsqaUBKTNV-1" source="LHV5OJZliF3AEs5SAvBv-0" target="LHV5OJZliF3AEs5SAvBv-1">
          <mxGeometry relative="1" as="geometry" />
        </mxCell>
        <mxCell id="LHV5OJZliF3AEs5SAvBv-0" value="start" style="ellipse;whiteSpace=wrap;html=1;" vertex="1" parent="WIyWlLk6GJQsqaUBKTNV-1">
          <mxGeometry x="280" y="40" width="120" height="80" as="geometry" />
        </mxCell>
        <mxCell id="LHV5OJZliF3AEs5SAvBv-4" value="" style="edgeStyle=orthogonalEdgeStyle;rounded=0;orthogonalLoop=1;jettySize=auto;html=1;" edge="1" parent="WIyWlLk6GJQsqaUBKTNV-1" source="LHV5OJZliF3AEs5SAvBv-1" target="LHV5OJZliF3AEs5SAvBv-3">
          <mxGeometry relative="1" as="geometry" />
        </mxCell>
        <mxCell id="LHV5OJZliF3AEs5SAvBv-1" value="nhập a, b, c" style="shape=parallelogram;perimeter=parallelogramPerimeter;whiteSpace=wrap;html=1;fixedSize=1;" vertex="1" parent="WIyWlLk6GJQsqaUBKTNV-1">
          <mxGeometry x="280" y="160" width="120" height="60" as="geometry" />
        </mxCell>
        <mxCell id="LHV5OJZliF3AEs5SAvBv-6" value="đúng" style="edgeStyle=orthogonalEdgeStyle;rounded=0;orthogonalLoop=1;jettySize=auto;html=1;" edge="1" parent="WIyWlLk6GJQsqaUBKTNV-1" source="LHV5OJZliF3AEs5SAvBv-3" target="LHV5OJZliF3AEs5SAvBv-5">
          <mxGeometry y="10" relative="1" as="geometry">
            <mxPoint as="offset" />
          </mxGeometry>
        </mxCell>
        <mxCell id="LHV5OJZliF3AEs5SAvBv-8" value="sai" style="edgeStyle=orthogonalEdgeStyle;rounded=0;orthogonalLoop=1;jettySize=auto;html=1;" edge="1" parent="WIyWlLk6GJQsqaUBKTNV-1" source="LHV5OJZliF3AEs5SAvBv-3" target="LHV5OJZliF3AEs5SAvBv-7">
          <mxGeometry x="-0.2" y="10" relative="1" as="geometry">
            <mxPoint as="offset" />
          </mxGeometry>
        </mxCell>
        <mxCell id="LHV5OJZliF3AEs5SAvBv-3" value="a=0" style="rhombus;whiteSpace=wrap;html=1;" vertex="1" parent="WIyWlLk6GJQsqaUBKTNV-1">
          <mxGeometry x="280" y="270" width="120" height="80" as="geometry" />
        </mxCell>
        <mxCell id="LHV5OJZliF3AEs5SAvBv-24" style="edgeStyle=orthogonalEdgeStyle;rounded=0;orthogonalLoop=1;jettySize=auto;html=1;exitX=1;exitY=0.5;exitDx=0;exitDy=0;entryX=1;entryY=0.5;entryDx=0;entryDy=0;" edge="1" parent="WIyWlLk6GJQsqaUBKTNV-1" source="LHV5OJZliF3AEs5SAvBv-5" target="LHV5OJZliF3AEs5SAvBv-20">
          <mxGeometry relative="1" as="geometry" />
        </mxCell>
        <mxCell id="LHV5OJZliF3AEs5SAvBv-5" value="phương trình bậc 1" style="whiteSpace=wrap;html=1;" vertex="1" parent="WIyWlLk6GJQsqaUBKTNV-1">
          <mxGeometry x="480" y="280" width="140" height="60" as="geometry" />
        </mxCell>
        <mxCell id="LHV5OJZliF3AEs5SAvBv-10" value="" style="edgeStyle=orthogonalEdgeStyle;rounded=0;orthogonalLoop=1;jettySize=auto;html=1;" edge="1" parent="WIyWlLk6GJQsqaUBKTNV-1" source="LHV5OJZliF3AEs5SAvBv-7" target="LHV5OJZliF3AEs5SAvBv-9">
          <mxGeometry relative="1" as="geometry" />
        </mxCell>
        <mxCell id="LHV5OJZliF3AEs5SAvBv-7" value="delta = b*b - 4*a*c" style="whiteSpace=wrap;html=1;" vertex="1" parent="WIyWlLk6GJQsqaUBKTNV-1">
          <mxGeometry x="280" y="400" width="120" height="60" as="geometry" />
        </mxCell>
        <mxCell id="LHV5OJZliF3AEs5SAvBv-12" value="" style="edgeStyle=orthogonalEdgeStyle;rounded=0;orthogonalLoop=1;jettySize=auto;html=1;" edge="1" parent="WIyWlLk6GJQsqaUBKTNV-1" source="LHV5OJZliF3AEs5SAvBv-9" target="LHV5OJZliF3AEs5SAvBv-11">
          <mxGeometry relative="1" as="geometry" />
        </mxCell>
        <mxCell id="LHV5OJZliF3AEs5SAvBv-14" value="đúng" style="edgeStyle=orthogonalEdgeStyle;rounded=0;orthogonalLoop=1;jettySize=auto;html=1;" edge="1" parent="WIyWlLk6GJQsqaUBKTNV-1" source="LHV5OJZliF3AEs5SAvBv-9" target="LHV5OJZliF3AEs5SAvBv-13">
          <mxGeometry y="10" relative="1" as="geometry">
            <mxPoint as="offset" />
          </mxGeometry>
        </mxCell>
        <mxCell id="LHV5OJZliF3AEs5SAvBv-19" value="sai" style="edgeStyle=orthogonalEdgeStyle;rounded=0;orthogonalLoop=1;jettySize=auto;html=1;" edge="1" parent="WIyWlLk6GJQsqaUBKTNV-1" source="LHV5OJZliF3AEs5SAvBv-9" target="LHV5OJZliF3AEs5SAvBv-11">
          <mxGeometry x="-0.2" y="10" relative="1" as="geometry">
            <mxPoint as="offset" />
          </mxGeometry>
        </mxCell>
        <mxCell id="LHV5OJZliF3AEs5SAvBv-9" value="delta &amp;lt; 0" style="rhombus;whiteSpace=wrap;html=1;" vertex="1" parent="WIyWlLk6GJQsqaUBKTNV-1">
          <mxGeometry x="280" y="510" width="120" height="80" as="geometry" />
        </mxCell>
        <mxCell id="LHV5OJZliF3AEs5SAvBv-16" value="đúng" style="edgeStyle=orthogonalEdgeStyle;rounded=0;orthogonalLoop=1;jettySize=auto;html=1;" edge="1" parent="WIyWlLk6GJQsqaUBKTNV-1" source="LHV5OJZliF3AEs5SAvBv-11" target="LHV5OJZliF3AEs5SAvBv-15">
          <mxGeometry y="10" relative="1" as="geometry">
            <mxPoint as="offset" />
          </mxGeometry>
        </mxCell>
        <mxCell id="LHV5OJZliF3AEs5SAvBv-18" value="sai" style="edgeStyle=orthogonalEdgeStyle;rounded=0;orthogonalLoop=1;jettySize=auto;html=1;" edge="1" parent="WIyWlLk6GJQsqaUBKTNV-1" source="LHV5OJZliF3AEs5SAvBv-11" target="LHV5OJZliF3AEs5SAvBv-17">
          <mxGeometry x="-0.2" y="10" relative="1" as="geometry">
            <mxPoint as="offset" />
          </mxGeometry>
        </mxCell>
        <mxCell id="LHV5OJZliF3AEs5SAvBv-11" value="delta &amp;gt; 0" style="rhombus;whiteSpace=wrap;html=1;" vertex="1" parent="WIyWlLk6GJQsqaUBKTNV-1">
          <mxGeometry x="280" y="640" width="120" height="80" as="geometry" />
        </mxCell>
        <mxCell id="LHV5OJZliF3AEs5SAvBv-23" style="edgeStyle=orthogonalEdgeStyle;rounded=0;orthogonalLoop=1;jettySize=auto;html=1;exitX=1;exitY=0.5;exitDx=0;exitDy=0;entryX=1;entryY=0.5;entryDx=0;entryDy=0;" edge="1" parent="WIyWlLk6GJQsqaUBKTNV-1" source="LHV5OJZliF3AEs5SAvBv-13" target="LHV5OJZliF3AEs5SAvBv-20">
          <mxGeometry relative="1" as="geometry" />
        </mxCell>
        <mxCell id="LHV5OJZliF3AEs5SAvBv-13" value="phương trình vô nghệm" style="whiteSpace=wrap;html=1;" vertex="1" parent="WIyWlLk6GJQsqaUBKTNV-1">
          <mxGeometry x="480" y="520" width="140" height="60" as="geometry" />
        </mxCell>
        <mxCell id="LHV5OJZliF3AEs5SAvBv-22" style="edgeStyle=orthogonalEdgeStyle;rounded=0;orthogonalLoop=1;jettySize=auto;html=1;exitX=1;exitY=0.5;exitDx=0;exitDy=0;entryX=1;entryY=0.5;entryDx=0;entryDy=0;" edge="1" parent="WIyWlLk6GJQsqaUBKTNV-1" source="LHV5OJZliF3AEs5SAvBv-15" target="LHV5OJZliF3AEs5SAvBv-20">
          <mxGeometry relative="1" as="geometry" />
        </mxCell>
        <mxCell id="LHV5OJZliF3AEs5SAvBv-15" value="&lt;div style=&quot;&quot;&gt;&lt;span style=&quot;background-color: initial;&quot;&gt;&lt;font style=&quot;font-size: 12px;&quot;&gt;phương trình có hai nghiệm phân biệt&lt;/font&gt;&lt;/span&gt;&lt;/div&gt;&lt;div style=&quot;&quot;&gt;&lt;div style=&quot;&quot;&gt;&lt;span style=&quot;background-color: initial;&quot;&gt;&lt;font style=&quot;font-size: 12px;&quot;&gt;x1=(-b+sqrt(delta))/(2*a)&lt;/font&gt;&lt;/span&gt;&lt;/div&gt;&lt;div style=&quot;&quot;&gt;&lt;span style=&quot;background-color: initial;&quot;&gt;&lt;font style=&quot;font-size: 12px;&quot;&gt;x2=(-b-sqrt(delta))/(2*a)&lt;/font&gt;&lt;/span&gt;&lt;/div&gt;&lt;/div&gt;" style="whiteSpace=wrap;html=1;align=center;" vertex="1" parent="WIyWlLk6GJQsqaUBKTNV-1">
          <mxGeometry x="480" y="645" width="140" height="70" as="geometry" />
        </mxCell>
        <mxCell id="LHV5OJZliF3AEs5SAvBv-21" value="" style="edgeStyle=orthogonalEdgeStyle;rounded=0;orthogonalLoop=1;jettySize=auto;html=1;" edge="1" parent="WIyWlLk6GJQsqaUBKTNV-1" source="LHV5OJZliF3AEs5SAvBv-17" target="LHV5OJZliF3AEs5SAvBv-20">
          <mxGeometry relative="1" as="geometry" />
        </mxCell>
        <mxCell id="LHV5OJZliF3AEs5SAvBv-17" value="phương trình có nghiệm kép&lt;div&gt;x=-b/(2*a)&lt;/div&gt;" style="whiteSpace=wrap;html=1;" vertex="1" parent="WIyWlLk6GJQsqaUBKTNV-1">
          <mxGeometry x="280" y="770" width="120" height="60" as="geometry" />
        </mxCell>
        <mxCell id="LHV5OJZliF3AEs5SAvBv-20" value="end" style="ellipse;whiteSpace=wrap;html=1;" vertex="1" parent="WIyWlLk6GJQsqaUBKTNV-1">
          <mxGeometry x="280" y="880" width="120" height="80" as="geometry" />
        </mxCell>
      </root>
    </mxGraphModel>
  </diagram>
</mxfile>
